<?xml version="1.0" standalone="no"?>
<!DOCTYPE svg PUBLIC "-//W3C//DTD SVG 20010904//EN"
 "http://www.w3.org/TR/2001/REC-SVG-20010904/DTD/svg10.dtd">
<svg version="1.0" xmlns="http://www.w3.org/2000/svg"
 width="515.000000pt" height="485.000000pt" viewBox="0 0 515.000000 485.000000"
 preserveAspectRatio="xMidYMid meet">

<g transform="translate(0.000000,485.000000) scale(0.100000,-0.100000)"
fill="#000000" stroke="none">
<path d="M2246 3643 c-14 -7 -80 -33 -148 -57 -68 -24 -159 -61 -203 -82 -80
-40 -189 -128 -200 -165 -7 -22 12 -122 32 -161 7 -15 13 -49 13 -77 0 -31 11
-79 31 -131 23 -61 29 -87 22 -102 -8 -18 -14 -8 -41 68 -17 49 -33 98 -34
109 -4 19 -4 19 -16 -3 -11 -19 -10 -26 7 -48 25 -32 50 -117 52 -176 2 -38
-3 -49 -27 -74 -18 -17 -28 -36 -26 -48 3 -13 0 -16 -9 -11 -8 5 -10 4 -5 -3
12 -21 46 -13 71 16 26 29 75 141 75 171 0 25 25 46 36 30 4 -7 8 -107 9 -223
1 -116 4 -222 8 -236 13 -49 18 -128 17 -285 0 -225 -8 -348 -36 -520 -13 -82
-24 -157 -24 -166 0 -42 170 -62 545 -63 279 0 398 9 542 40 107 23 104 18 88
157 -9 73 -11 126 -5 141 6 16 4 32 -6 51 -17 33 -34 132 -34 203 0 28 -4 52
-10 52 -21 0 -90 73 -90 95 0 53 12 58 37 16 13 -23 26 -41 29 -41 2 0 10 12
17 28 8 19 12 103 12 287 0 241 8 451 21 535 l6 35 19 -24 c10 -13 19 -28 19
-35 0 -6 22 -63 48 -126 43 -102 52 -115 75 -118 32 -4 93 22 178 76 109 70
104 54 58 157 -70 158 -160 337 -204 404 -80 125 -145 166 -398 247 -77 24
-152 51 -169 60 -39 20 -343 18 -382 -3z m302 -309 c20 -14 22 -24 22 -100 0
-103 -9 -124 -53 -124 -50 0 -57 13 -57 116 0 85 2 94 22 108 12 9 27 16 33
16 6 0 21 -7 33 -16z m-294 -81 c4 -49 9 -100 12 -115 5 -25 3 -28 -20 -28
-19 0 -26 5 -26 20 0 11 -5 20 -11 20 -6 0 -13 -9 -16 -20 -3 -12 -14 -20 -27
-20 -21 0 -21 1 -10 113 6 61 12 113 13 115 0 1 18 2 40 2 l39 0 6 -87z m76
-28 l0 -115 -25 0 -25 0 0 115 0 115 25 0 25 0 0 -115z m110 96 c0 -10 -7 -21
-15 -25 -12 -4 -15 -25 -15 -96 0 -83 -1 -90 -20 -90 -19 0 -20 7 -20 95 0 78
-3 95 -15 95 -8 0 -15 9 -15 20 0 17 7 20 50 20 42 0 50 -3 50 -19z m261 -5
c7 -15 8 -36 4 -53 -5 -15 -7 -56 -6 -90 3 -58 1 -63 -18 -63 -18 0 -21 6 -21
49 0 28 -4 53 -10 56 -6 4 -10 -15 -10 -49 0 -53 -1 -56 -25 -56 l-25 0 0 115
0 115 50 0 c44 0 52 -3 61 -24z m-307 -350 c50 -21 66 -51 66 -121 0 -65 -21
-109 -96 -207 l-36 -48 66 0 66 0 0 -45 0 -45 -126 0 -126 0 7 36 c10 56 19
74 68 139 24 33 52 74 61 92 18 36 22 108 6 118 -20 12 -40 -17 -40 -56 l0
-39 -50 0 c-48 0 -50 1 -50 28 1 127 81 191 184 148z m244 -228 l2 -238 -50 0
-50 0 0 181 c0 141 -3 180 -12 176 -50 -20 -48 -21 -48 22 0 30 4 41 15 41 8
0 29 13 47 30 24 22 41 29 63 27 l30 -2 3 -237z m-714 -284 l-8 -79 -9 59 c-6
40 -5 68 3 84 17 39 22 20 14 -64z m959 -39 c-3 -14 3 -37 15 -56 19 -31 19
-50 -3 -117 -8 -22 -53 16 -65 54 -14 40 -7 75 22 122 22 36 38 35 31 -3z
m-839 -177 c-4 -56 -2 -78 9 -92 14 -19 15 -19 31 12 9 17 26 41 38 52 24 22
47 28 31 8 -6 -7 -10 -20 -10 -28 0 -24 -24 -104 -35 -117 -6 -7 -28 -18 -50
-23 -48 -13 -45 -34 5 -38 29 -3 42 3 62 22 38 39 53 33 81 -31 l26 -58 24 28
c27 32 30 63 9 91 -16 21 -21 101 -7 110 5 3 15 -6 22 -20 8 -14 36 -41 62
-60 51 -36 83 -80 93 -126 8 -32 13 -33 62 -13 46 20 69 19 85 -2 7 -10 21
-24 31 -32 16 -13 20 -13 27 -1 15 24 -10 51 -75 80 -66 29 -69 34 -81 110 -3
25 -11 56 -17 70 -14 34 -16 60 -5 60 23 0 71 -46 99 -95 35 -62 53 -79 74
-71 20 7 19 55 -1 84 -10 14 -14 32 -10 48 8 29 22 31 31 5 3 -11 30 -33 60
-50 30 -17 55 -37 55 -45 0 -7 -7 -30 -15 -51 -18 -41 -12 -75 13 -75 41 1 67
46 58 101 -5 33 -3 39 11 39 38 0 48 -17 48 -81 0 -69 -14 -85 -35 -42 l-14
28 -6 -42 c-8 -52 -12 -57 -45 -49 -35 9 -75 53 -75 82 l0 23 -22 -22 -23 -22
28 -14 c29 -15 46 -56 29 -73 -20 -20 -100 -22 -142 -3 -36 16 -42 16 -70 3
-50 -24 -85 -11 -122 46 -36 55 -58 69 -58 37 0 -34 -22 -71 -46 -77 -29 -7
-110 30 -125 58 -10 19 -11 19 -36 -6 -33 -33 -73 -33 -110 -2 -22 19 -27 31
-26 65 1 23 -2 39 -7 36 -5 -3 -11 -1 -15 5 -3 5 -1 10 5 10 7 0 9 16 4 48 -4
36 -2 57 11 81 22 44 30 33 10 -14 -8 -21 -14 -40 -11 -42 6 -7 37 78 31 87
-5 9 22 60 31 60 3 0 2 -33 -2 -72z m-101 -43 c5 -28 4 -34 -3 -20 -8 19 -14
73 -6 64 2 -2 6 -22 9 -44z m607 -355 c11 -6 20 -15 20 -21 0 -5 -13 -3 -30 6
-16 8 -47 15 -70 15 -28 0 -39 4 -34 11 8 13 83 5 114 -11z m-154 -15 c-26
-19 -42 -19 -26 0 7 8 20 15 29 15 13 -1 13 -3 -3 -15z m120 -5 c53 -21 60
-56 22 -109 -17 -24 -48 -24 -48 0 0 6 6 9 14 6 8 -3 20 1 27 9 16 20 -6 61
-46 86 -34 20 -15 25 31 8z m-41 -17 c19 -9 35 -20 35 -25 0 -8 -32 1 -40 12
-3 4 -14 12 -25 18 -31 17 -10 14 30 -5z m-65 -3 c0 -5 -7 -10 -16 -10 -8 0
-12 5 -9 10 3 6 10 10 16 10 5 0 9 -4 9 -10z m195 -58 c0 -26 4 -50 8 -53 4
-3 1 -12 -8 -19 -13 -11 -14 -10 -9 5 4 11 3 16 -2 12 -6 -3 -11 23 -12 61 -3
55 -1 65 10 54 7 -7 13 -34 13 -60z m-252 -37 c-4 -16 -6 -34 -5 -38 4 -14
-21 -2 -26 13 -3 8 0 10 8 5 10 -6 11 -3 6 11 -16 38 -17 50 -5 79 l12 30 8
-35 c5 -19 5 -48 2 -65z m110 73 c3 -9 -6 -13 -26 -14 -28 -1 -29 0 -12 12 23
17 32 18 38 2z m-162 -60 c-6 -17 -11 -47 -11 -67 0 -27 -3 -32 -10 -21 -10
16 -6 50 12 110 6 19 13 29 16 22 2 -7 -1 -27 -7 -44z m91 30 c-5 -21 -4 -22
13 -8 17 14 18 14 5 -9 -12 -23 -13 -23 -26 -7 -7 10 -10 24 -7 32 9 23 22 16
15 -8z m254 -13 c7 -19 13 -54 13 -77 l-1 -43 -8 45 c-5 25 -13 58 -19 73 -13
32 -13 37 -5 37 3 0 12 -16 20 -35z m-118 0 c-3 -3 -13 -2 -22 1 -14 5 -15 9
-4 15 13 8 36 -6 26 -16z m-88 -30 c0 -14 5 -24 11 -22 6 1 13 -3 16 -10 4
-12 -14 -12 -34 0 -15 10 -17 57 -3 57 6 0 10 -11 10 -25z m184 -130 c-6 -15
-35 -35 -51 -35 -6 0 46 48 54 50 1 0 0 -7 -3 -15z m-270 -20 c16 -12 17 -15
4 -15 -8 0 -21 7 -28 15 -16 19 -1 19 24 0z m-10 -33 c3 -5 19 -7 35 -6 25 2
31 -2 31 -17 0 -10 -4 -19 -10 -19 -5 0 -10 7 -10 15 0 8 -5 15 -11 15 -6 0
-9 -9 -6 -20 6 -22 -8 -28 -17 -7 -3 8 -9 6 -20 -7 -15 -19 -16 -18 -16 17 0
34 12 48 24 29z m286 -23 c0 -21 -4 -27 -15 -23 -8 4 -15 16 -15 28 0 14 6 23
15 23 10 0 15 -10 15 -28z m-167 -1 c4 -14 -1 -18 -19 -18 -17 0 -24 6 -24 19
0 25 37 24 43 -1z m127 2 c0 -25 -38 -28 -47 -3 -6 15 -7 15 -14 -3 -7 -18 -8
-18 -9 1 -1 18 -1 19 -11 3 -13 -24 -29 -23 -29 2 0 18 7 20 55 20 48 0 55 -2
55 -20z m-10 -46 c0 -8 -67 -34 -87 -34 -10 1 5 9 32 19 28 10 51 19 53 20 1
0 2 -1 2 -5z m-125 -28 c11 -3 2 -3 -19 -1 -22 2 -44 9 -50 15 -7 7 -2 8 19 1
17 -5 39 -12 50 -15z"/>
<path d="M2500 3224 c0 -56 3 -75 13 -72 13 5 22 88 12 125 -12 48 -25 21 -25
-53z"/>
<path d="M2200 3237 c0 -33 4 -57 10 -57 7 0 8 19 4 53 -9 70 -14 72 -14 4z"/>
<path d="M2640 3280 c0 -11 5 -20 10 -20 6 0 10 9 10 20 0 11 -4 20 -10 20 -5
0 -10 -9 -10 -20z"/>
<path d="M2491 2158 c-1 -4 4 -30 10 -58 7 -33 18 -54 32 -61 20 -11 20 -11
-1 16 -12 15 -22 37 -23 49 0 20 -17 68 -18 54z"/>
<path d="M2690 2146 c0 -2 8 -10 18 -17 15 -13 16 -12 3 4 -13 16 -21 21 -21
13z"/>
<path d="M2078 2099 c-15 -16 -23 -29 -18 -29 11 0 50 41 50 52 0 11 -1 10
-32 -23z"/>
<path d="M2305 2080 c7 -11 65 -43 65 -36 0 2 -16 13 -36 25 -19 12 -32 16
-29 11z"/>
<path d="M1646 3258 c-21 -34 -29 -68 -16 -68 6 0 9 -17 8 -42 -2 -33 1 -43
12 -43 12 0 15 15 12 83 -2 55 1 81 8 77 5 -3 10 -1 10 4 0 19 -19 12 -34 -11z"/>
<path d="M1569 3086 c-17 -37 -33 -79 -34 -94 -4 -44 -16 -84 -42 -140 -14
-29 -22 -59 -19 -67 5 -14 76 -55 96 -55 14 0 13 74 -3 113 -13 33 -12 67 2
67 7 0 70 -66 102 -107 28 -37 55 13 42 80 -11 57 -31 85 -70 97 -21 7 -41 15
-44 19 -4 3 -3 38 1 76 5 39 6 72 4 74 -2 2 -18 -26 -35 -63z"/>
</g>
</svg>
